<?xml version="1.0" standalone="no"?>
<!DOCTYPE svg PUBLIC "-//W3C//DTD SVG 20010904//EN"
 "http://www.w3.org/TR/2001/REC-SVG-20010904/DTD/svg10.dtd">
<svg version="1.0" xmlns="http://www.w3.org/2000/svg"
 width="768.000000pt" height="768.000000pt" viewBox="0 0 768.000000 768.000000"
 preserveAspectRatio="xMidYMid meet">
<metadata>
Created by potrace 1.11, written by Peter Selinger 2001-2013
</metadata>
<g transform="translate(0.000000,768.000000) scale(0.100000,-0.100000)"
fill="#000000" stroke="none">
<path d="M3638 7654 c-2 -1 -39 -5 -83 -7 -44 -3 -80 -6 -80 -7 0 0 -20 -3
-45 -4 -25 -2 -63 -6 -85 -10 -22 -3 -58 -8 -80 -11 -64 -9 -98 -14 -125 -20
-75 -17 -127 -27 -147 -30 -11 -2 -30 -6 -41 -9 -11 -4 -29 -9 -39 -11 -10 -3
-38 -9 -63 -15 -25 -6 -52 -13 -60 -17 -8 -3 -19 -7 -25 -8 -53 -13 -102 -29
-112 -37 -7 -6 -13 -8 -13 -4 0 4 -13 0 -30 -9 -16 -8 -32 -15 -35 -15 -11 1
-61 -13 -70 -20 -16 -11 -109 -44 -117 -42 -5 1 -8 -3 -8 -10 0 -6 -3 -8 -7
-5 -3 4 -12 2 -20 -4 -7 -6 -13 -8 -13 -3 0 5 -4 3 -9 -5 -5 -8 -18 -16 -29
-17 -10 -2 -48 -18 -83 -35 -35 -18 -65 -30 -65 -28 -1 2 -11 -5 -23 -15 -12
-11 -21 -16 -21 -11 0 4 -6 3 -12 -3 -7 -5 -38 -23 -68 -40 -75 -40 -114 -63
-189 -108 -35 -22 -74 -45 -87 -52 -13 -7 -24 -17 -24 -23 0 -5 -5 -9 -10 -9
-14 0 -146 -92 -191 -132 -10 -10 -22 -18 -25 -18 -7 0 -101 -77 -136 -112
-16 -15 -28 -26 -28 -23 0 21 -323 -306 -425 -431 -22 -26 -48 -56 -58 -66 -9
-10 -14 -18 -10 -18 5 0 3 -4 -2 -8 -6 -4 -26 -27 -45 -52 -19 -25 -38 -46
-42 -48 -5 -2 -8 -10 -8 -17 0 -7 -3 -15 -7 -17 -5 -1 -21 -23 -38 -48 -16
-25 -32 -47 -36 -50 -3 -3 -23 -34 -44 -70 -21 -36 -42 -67 -46 -70 -3 -3 -19
-30 -35 -60 -15 -30 -31 -56 -36 -58 -4 -2 -12 -19 -18 -38 -6 -19 -16 -34
-21 -34 -5 0 -9 -5 -9 -11 0 -5 -27 -67 -61 -137 -34 -70 -65 -136 -69 -147
-5 -11 -18 -41 -29 -67 -12 -26 -21 -53 -21 -61 0 -7 -3 -17 -8 -21 -4 -4 -7
-11 -8 -14 0 -4 -6 -20 -12 -35 -12 -28 -75 -221 -87 -267 -3 -14 -15 -56 -25
-95 -11 -38 -17 -71 -15 -74 3 -2 1 -9 -4 -15 -5 -6 -12 -29 -15 -50 -4 -21
-8 -48 -11 -60 -5 -22 -13 -64 -20 -106 -3 -14 -7 -45 -10 -70 -3 -25 -8 -58
-12 -75 -3 -16 -7 -48 -9 -70 -2 -22 -6 -78 -10 -125 -12 -135 -7 -675 6 -675
1 0 3 -13 4 -30 5 -58 22 -185 26 -195 1 -3 3 -18 5 -35 2 -16 6 -43 10 -60 4
-16 8 -39 10 -50 1 -11 5 -31 8 -45 3 -14 16 -68 28 -120 12 -52 24 -99 28
-105 3 -5 7 -19 8 -30 2 -11 8 -31 13 -45 5 -14 11 -34 13 -45 4 -19 6 -27 23
-70 4 -11 8 -22 9 -25 7 -28 49 -147 55 -155 4 -5 11 -21 15 -33 4 -13 16 -45
28 -70 12 -26 21 -49 22 -52 0 -3 14 -34 32 -70 17 -36 33 -69 34 -75 2 -5 20
-41 41 -79 21 -38 38 -73 38 -77 0 -5 5 -9 11 -9 5 0 7 -5 4 -10 -3 -6 -1 -10
4 -10 6 0 11 -6 12 -12 0 -7 14 -33 29 -58 16 -25 39 -63 51 -84 11 -21 25
-44 30 -50 5 -6 44 -60 86 -121 42 -60 80 -111 85 -113 4 -2 8 -10 8 -17 0 -7
3 -15 8 -17 4 -2 25 -25 47 -53 22 -27 49 -59 60 -71 11 -12 40 -44 64 -73 79
-94 288 -298 391 -381 17 -14 39 -32 48 -41 9 -9 46 -38 83 -65 36 -27 80 -60
98 -74 18 -14 45 -32 59 -40 15 -8 32 -22 39 -30 7 -8 13 -12 13 -8 0 7 14 -3
54 -37 6 -5 18 -11 26 -13 8 -2 17 -8 18 -13 2 -5 10 -9 18 -9 8 0 14 -3 14
-7 0 -5 23 -19 50 -32 28 -14 50 -27 50 -30 0 -4 25 -17 55 -31 30 -14 55 -28
55 -32 0 -5 5 -8 10 -8 6 0 61 -24 123 -54 62 -30 141 -66 177 -80 36 -15 74
-31 85 -36 34 -14 109 -42 125 -45 8 -2 39 -13 68 -24 28 -10 52 -17 52 -14 0
3 7 0 15 -7 8 -7 15 -10 15 -6 0 3 12 1 28 -5 15 -6 34 -12 42 -15 8 -2 51
-12 94 -24 44 -11 89 -22 100 -24 12 -3 44 -9 71 -15 71 -15 105 -22 140 -26
17 -2 41 -7 55 -10 38 -9 129 -18 187 -19 29 -1 53 -4 53 -7 0 -9 79 -12 330
-12 177 -1 375 6 375 13 0 0 20 3 45 4 25 2 63 6 85 10 22 3 57 8 78 11 65 9
101 15 127 20 75 17 127 27 147 30 11 2 30 6 41 9 11 4 29 9 39 11 10 3 38 9
63 15 25 6 52 13 60 17 8 3 20 7 25 8 53 13 102 29 113 37 6 6 12 7 12 4 0 -4
9 -2 21 4 11 7 33 14 47 16 15 3 33 11 41 17 8 7 15 10 15 9 1 -4 14 0 151 57
55 23 104 41 109 40 5 0 12 4 16 11 4 6 13 12 21 14 17 3 162 76 169 85 3 3
11 7 18 9 13 2 283 161 292 171 3 3 25 19 50 36 70 46 155 109 158 118 2 4 8
7 13 7 5 0 17 8 27 17 10 10 34 30 53 45 81 63 205 175 308 279 96 96 191 199
184 199 -2 0 7 11 21 24 15 13 26 29 26 35 0 7 5 9 10 6 6 -3 10 1 10 9 0 9 3
16 8 16 4 0 22 23 41 50 19 28 38 50 42 50 4 0 10 8 13 18 4 10 14 27 24 38
29 32 122 172 122 183 0 6 4 11 10 11 5 0 17 15 25 33 21 44 47 88 63 105 6 7
12 20 12 28 0 8 3 14 8 14 4 0 18 25 32 55 14 30 29 55 33 55 5 0 6 4 2 9 -3
5 2 16 10 24 8 9 15 23 15 31 0 9 5 16 10 16 6 0 10 5 10 10 0 6 14 40 30 76
27 57 50 109 55 124 9 26 28 70 40 91 8 14 12 29 8 32 -3 4 -1 12 4 19 10 13
53 128 58 157 2 9 4 16 5 16 1 0 3 8 5 18 2 10 7 26 11 35 4 9 8 22 10 27 1 6
14 55 29 110 14 55 29 111 31 125 2 14 11 56 19 93 9 37 13 72 10 78 -4 5 -1
9 4 9 6 0 10 3 9 8 -2 7 19 178 28 232 17 99 24 587 11 720 -4 36 -9 88 -11
115 -6 63 -13 120 -21 165 -4 19 -8 46 -10 60 -6 38 -15 82 -21 110 -3 14 -8
39 -11 55 -2 17 -6 37 -9 45 -3 8 -8 26 -10 40 -3 14 -10 43 -16 65 -6 22 -11
45 -9 52 1 6 -3 14 -9 18 -5 3 -10 16 -10 29 0 12 -3 26 -7 30 -4 3 -8 16 -10
28 -4 27 -78 242 -98 285 -8 17 -15 33 -15 36 0 2 -10 26 -22 53 -12 27 -22
51 -23 54 0 3 -15 35 -33 72 -18 37 -32 69 -32 70 1 2 -17 36 -39 77 -23 41
-41 78 -41 82 0 5 -5 9 -11 9 -5 0 -7 5 -4 10 3 6 1 10 -4 10 -6 0 -11 6 -12
13 0 6 -14 32 -29 57 -16 25 -39 63 -51 84 -11 21 -25 44 -30 50 -5 6 -44 61
-86 121 -42 61 -80 112 -85 113 -4 2 -8 10 -8 17 0 7 -3 15 -8 17 -4 2 -25 25
-47 53 -22 27 -49 59 -60 71 -11 12 -40 44 -64 73 -50 59 -225 236 -293 296
-104 92 -165 143 -232 193 -39 30 -84 63 -100 75 -15 12 -40 29 -54 37 -15 8
-32 22 -39 30 -7 8 -13 12 -13 8 0 -7 -14 3 -54 37 -6 6 -18 11 -26 13 -8 2
-16 8 -18 13 -2 5 -10 9 -18 9 -8 0 -14 3 -14 8 0 4 -23 18 -50 31 -28 14 -50
27 -50 30 0 4 -25 17 -55 31 -30 14 -55 28 -55 33 0 4 -5 7 -12 7 -6 0 -51 20
-100 45 -48 25 -89 44 -91 44 -1 0 -33 13 -70 30 -38 17 -71 31 -74 31 -3 0
-19 6 -36 14 -43 19 -119 47 -137 51 -8 2 -39 13 -67 24 -29 10 -53 17 -53 14
0 -3 -7 0 -15 7 -8 7 -15 10 -15 6 0 -3 -12 -1 -27 5 -16 6 -35 12 -43 15 -8
2 -51 12 -94 24 -44 11 -89 22 -100 24 -12 3 -43 9 -71 15 -71 15 -105 22
-140 26 -16 2 -41 7 -55 10 -38 9 -129 18 -187 19 -29 1 -53 4 -53 8 0 4 -10
8 -22 8 -13 0 -134 1 -270 3 -136 2 -249 3 -250 1z"/>
</g>
</svg>
